<?xml version="1.0" encoding="iso-8859-1"?>
<!-- Generator: Adobe Illustrator 19.0.0, SVG Export Plug-In . SVG Version: 6.00 Build 0)  -->
<svg version="1.1" id="Layer_1" xmlns="http://www.w3.org/2000/svg" xmlns:xlink="http://www.w3.org/1999/xlink" x="0px" y="0px" width="50.832px" height="45px" viewBox="0 0 512 512" style="enable-background:new 0 0 512 512;" xml:space="preserve">
<path style="fill:#D8D9DD;" d="M480.07,452.795C460.427,418.853,423.751,396,381.714,396H263.87h-7.895H130.286
	c-42.037,0-78.713,22.853-98.356,56.795c-9.671,16.711-15.234,36.097-15.234,56.795h239.28h7.895h231.434
	C495.304,488.892,489.741,469.506,480.07,452.795z"/>
<path style="fill:#B7B9C0;" d="M480.07,452.795C460.427,418.853,423.751,396,381.714,396H263.87h-7.895v56.795v56.795h7.895h231.434
	C495.304,488.892,489.741,469.506,480.07,452.795z"/>
<path style="fill:#61A2EF;" d="M381.714,395.999H263.87h-7.895H130.286c-42.037,0-78.713,22.853-98.356,56.795h224.046H480.07
	C460.427,418.852,423.751,395.999,381.714,395.999z"/>
<path style="fill:#528ACF;" d="M480.07,452.795C460.427,418.853,423.751,396,381.714,396H263.87h-7.895v56.795H480.07z"/>
<path style="fill:#3A3839;" d="M478.447,281.973L478.447,281.973c18.53,0,33.553-15.022,33.553-33.553v-67.576
	c0-18.53-15.022-33.553-33.553-33.553h-0.001c-18.531,0-33.553,15.022-33.553,33.553l0.001,67.576
	C444.896,266.951,459.917,281.973,478.447,281.973z"/>
<path style="fill:#444242;" d="M33.553,281.973L33.553,281.973C15.022,281.973,0,266.951,0,248.421v-67.576
	c0-18.53,15.022-33.553,33.553-33.553h0.001c18.531,0,33.553,15.022,33.552,33.553l-0.001,67.576
	C67.104,266.951,52.083,281.973,33.553,281.973z"/>
<path style="fill:#EDEEF0;" d="M256,2.41c-117.021,0-212.223,95.203-212.223,212.223c0,117.021,95.203,212.224,212.223,212.224
	s212.223-95.203,212.223-212.224C468.223,97.613,373.021,2.41,256,2.41z"/>
<path style="fill:#DCDEE2;" d="M256,2.41v424.447c117.021,0,212.223-95.203,212.223-212.224C468.223,97.613,373.021,2.41,256,2.41z"
	/>
<path style="fill:#A8E3F7;" d="M256,78.537c-85.966,0-155.904,61.053-155.904,136.095S170.034,350.73,256,350.73
	s155.904-61.054,155.904-136.096S341.966,78.537,256,78.537z"/>
<path style="fill:#8EC1D6;" d="M411.904,214.633c0-75.044-69.938-136.095-155.904-136.095V350.73
	C341.966,350.73,411.904,289.676,411.904,214.633z"/>
<g>
</g>
<g>
</g>
<g>
</g>
<g>
</g>
<g>
</g>
<g>
</g>
<g>
</g>
<g>
</g>
<g>
</g>
<g>
</g>
<g>
</g>
<g>
</g>
<g>
</g>
<g>
</g>
<g>
</g>
</svg>
