<?xml version="1.0" encoding="iso-8859-1"?>
<!-- Generator: Adobe Illustrator 16.0.0, SVG Export Plug-In . SVG Version: 6.00 Build 0)  -->
<!DOCTYPE svg PUBLIC "-//W3C//DTD SVG 1.1//EN" "http://www.w3.org/Graphics/SVG/1.1/DTD/svg11.dtd">
<svg version="1.1" id="Capa_1" xmlns="http://www.w3.org/2000/svg" xmlns:xlink="http://www.w3.org/1999/xlink" x="0px" y="0px"
	 width="50.832px" height="45px" viewBox="0 0 50.832 50.831" style="enable-background:new 0 0 50.832 50.831;"
	 xml:space="preserve">
<g>
	<polygon points="34.562,45.566 34.562,43.816 27.282,43.816 27.282,42.941 32.75,42.941 32.75,41.191 27.282,41.191 27.282,17.837 
		24.282,17.837 24.282,50.831 26.562,50.831 27.282,50.831 32.75,50.831 32.75,49.081 27.282,49.081 27.282,48.316 34.562,48.316 
		34.562,46.566 27.282,46.566 27.282,45.566 	"/>
	<path d="M25.416,21.67c-7.783,0-13.881-4.759-13.881-10.835C11.535,4.76,17.633,0,25.416,0C33.2,0,39.296,4.76,39.296,10.835
		C39.296,16.911,33.2,21.67,25.416,21.67z M25.416,4.99c-4.917,0-9.07,2.676-9.07,5.845s4.153,5.845,9.07,5.845
		s9.07-2.676,9.07-5.845C34.486,7.667,30.333,4.99,25.416,4.99z"/>
</g>
<g>
</g>
<g>
</g>
<g>
</g>
<g>
</g>
<g>
</g>
<g>
</g>
<g>
</g>
<g>
</g>
<g>
</g>
<g>
</g>
<g>
</g>
<g>
</g>
<g>
</g>
<g>
</g>
<g>
</g>
</svg>
