<?xml version="1.0" encoding="UTF-8" standalone="no"?><!-- Generator: Gravit.io --><svg xmlns="http://www.w3.org/2000/svg" xmlns:xlink="http://www.w3.org/1999/xlink" style="isolation:isolate" viewBox="0 0 24 24" width="24pt" height="24pt"><defs><clipPath id="_clipPath_8FANzNdzAksNqe68wPUCLCPg4beKQ3ZI"><rect width="24" height="24"/></clipPath></defs><g clip-path="url(#_clipPath_8FANzNdzAksNqe68wPUCLCPg4beKQ3ZI)"><path d=" M 18.499 1.921 C 16.629 0.704 14.396 0 12 0 C 5.377 0 0 5.377 0 12 C 0 12.51 0.032 13.012 0.1 13.503 C 0.094 13.509 0.095 13.514 0.102 13.517 C 0.117 13.692 0.143 13.865 0.176 14.035 C 0.192 14.152 0.214 14.268 0.246 14.38 C 0.299 14.688 0.372 14.988 0.461 15.282 C 0.376 14.985 0.303 14.684 0.246 14.38 C 0.219 14.266 0.198 14.15 0.176 14.035 C 0.149 13.862 0.123 13.69 0.102 13.517 C 0.101 13.512 0.1 13.508 0.1 13.503 C 0.1 13.503 0.1 13.503 0.1 13.503 C 0.531 12.861 2.182 11.465 3.796 10.597 C 5.1 9.895 6.533 9.609 6.914 9.242 C 6.243 7.007 5.032 3.538 7.746 1.912 C 9.881 0.634 12.69 -0.142 13.77 2.958 C 14.851 6.057 14.572 6.754 15.037 6.754 C 15.501 6.754 16.644 6.977 17.128 5.004 C 17.481 3.564 17.699 2.326 18.499 1.921 Z  M 20.791 3.837 C 22.782 5.978 24 8.848 24 12 C 24 18.623 18.623 24 12 24 C 6.727 24 2.244 20.592 0.641 15.858 C 0.661 15.925 0.685 15.992 0.709 16.059 C 0.804 16.147 0.912 16.222 1.029 16.28 C 1.794 16.635 2.918 16.026 3.982 14.923 C 4.301 14.606 4.657 14.331 5.044 14.103 C 5.894 13.555 6.814 13.123 7.779 12.818 C 7.779 12.818 8.822 14.419 9.788 16.317 C 10.755 18.215 8.745 18.847 8.522 18.847 C 8.299 18.847 5.132 18.552 5.839 21.231 C 6.545 23.909 10.415 22.943 12.388 21.639 C 14.361 20.336 13.877 16.094 13.877 16.094 C 15.813 15.796 16.407 17.843 16.593 18.882 C 16.779 19.92 16.361 21.746 18.306 21.786 C 18.579 21.79 18.852 21.747 19.112 21.66 C 19.859 21.108 20.541 20.471 21.142 19.762 C 21.205 19.664 21.241 19.551 21.247 19.435 L 21.247 19.435 L 21.247 19.435 L 21.247 19.435 L 21.247 19.435 L 21.247 19.435 L 21.247 19.435 C 21.173 19.295 19.748 17.111 19.572 15.276 C 19.442 14.005 17.78 12.595 16.784 11.854 C 16.614 11.725 16.51 11.528 16.499 11.315 C 16.489 11.102 16.572 10.895 16.728 10.75 C 17.711 9.821 19.444 8.009 19.992 7.051 C 20.502 6.055 20.776 4.955 20.791 3.837 Z  M 2.769 8.88 C 2.705 8.777 2.568 8.745 2.465 8.81 C 2.362 8.875 2.331 9.011 2.395 9.114 C 2.46 9.218 2.596 9.249 2.7 9.184 C 2.749 9.153 2.785 9.103 2.798 9.046 C 2.811 8.989 2.801 8.929 2.769 8.88 L 2.769 8.88 L 2.769 8.88 L 2.769 8.88 L 2.769 8.88 L 2.769 8.88 L 2.769 8.88 L 2.769 8.88 L 2.769 8.88 L 2.769 8.88 Z  M 15.669 3.106 C 15.604 3.003 15.468 2.972 15.364 3.037 C 15.261 3.101 15.23 3.238 15.295 3.341 C 15.359 3.444 15.496 3.475 15.599 3.411 C 15.648 3.38 15.684 3.33 15.697 3.273 C 15.71 3.216 15.7 3.156 15.669 3.106 L 15.669 3.106 L 15.669 3.106 L 15.669 3.106 L 15.669 3.106 L 15.669 3.106 L 15.669 3.106 L 15.669 3.106 L 15.669 3.106 L 15.669 3.106 Z  M 18.333 11.768 C 18.302 11.907 18.39 12.044 18.528 12.076 C 18.667 12.107 18.805 12.02 18.837 11.881 C 18.868 11.742 18.781 11.604 18.642 11.573 C 18.576 11.557 18.505 11.569 18.447 11.606 C 18.389 11.643 18.348 11.701 18.333 11.768 L 18.333 11.768 L 18.333 11.768 L 18.333 11.768 L 18.333 11.768 L 18.333 11.768 L 18.333 11.768 L 18.333 11.768 L 18.333 11.768 Z  M 14.486 20.364 C 14.468 20.443 14.499 20.526 14.566 20.573 C 14.633 20.62 14.721 20.621 14.789 20.577 C 14.858 20.532 14.892 20.451 14.877 20.371 C 14.861 20.291 14.798 20.228 14.718 20.213 C 14.613 20.193 14.51 20.259 14.486 20.364 L 14.486 20.364 L 14.486 20.364 L 14.486 20.364 L 14.486 20.364 L 14.486 20.364 L 14.486 20.364 L 14.486 20.364 Z  M 4.456 4.916 C 4.441 4.981 4.482 5.046 4.547 5.061 C 4.611 5.076 4.676 5.036 4.691 4.971 C 4.707 4.906 4.667 4.841 4.603 4.826 C 4.571 4.818 4.538 4.823 4.51 4.84 C 4.483 4.857 4.463 4.885 4.456 4.916 L 4.456 4.916 L 4.456 4.916 L 4.456 4.916 L 4.456 4.916 L 4.456 4.916 L 4.456 4.916 Z  M 5.079 16.254 C 5.062 16.162 4.974 16.101 4.882 16.118 C 4.79 16.134 4.728 16.222 4.745 16.315 C 4.762 16.407 4.85 16.468 4.942 16.452 C 4.986 16.444 5.026 16.418 5.051 16.381 C 5.077 16.344 5.087 16.298 5.079 16.254 L 5.079 16.254 L 5.079 16.254 L 5.079 16.254 L 5.079 16.254 L 5.079 16.254 Z  M 20.548 9.767 L 20.276 9.228 L 19.683 9.105 L 20.222 8.833 L 20.343 8.241 L 20.617 8.78 L 21.21 8.901 L 20.671 9.175 L 20.548 9.767 L 20.548 9.767 L 20.548 9.767 L 20.548 9.767 Z  M 12.692 5.59 L 12.644 5.59 C 12.507 5.563 12.418 5.431 12.444 5.295 C 12.503 5.061 12.478 4.814 12.372 4.598 C 12.334 4.473 12.396 4.34 12.516 4.29 C 12.636 4.24 12.774 4.288 12.836 4.403 C 12.98 4.709 13.016 5.056 12.939 5.385 C 12.915 5.503 12.813 5.589 12.692 5.59 L 12.692 5.59 L 12.692 5.59 L 12.692 5.59 L 12.692 5.59 Z  M 11.468 6.889 C 9.495 7.632 8.545 6.656 8.415 4.879 C 8.269 2.869 10.165 2.349 10.165 2.349 C 12.256 1.652 12.806 2.646 13.292 4.136 C 13.777 5.625 13.44 6.152 11.468 6.889 L 11.468 6.889 L 11.468 6.889 L 11.468 6.889 L 11.468 6.889 L 11.468 6.889 L 11.468 6.889 Z  M 12.165 3.636 C 12.069 3.64 11.979 3.59 11.933 3.506 C 11.89 3.424 11.84 3.346 11.784 3.274 C 11.69 3.175 11.69 3.019 11.784 2.92 C 11.88 2.827 12.034 2.827 12.13 2.92 C 12.222 3.025 12.301 3.141 12.362 3.267 C 12.401 3.341 12.401 3.43 12.361 3.504 C 12.322 3.578 12.248 3.627 12.165 3.636 L 12.165 3.636 Z " fill-rule="evenodd" fill="rgb(0,0,0)"/></g></svg>